<mxfile host="app.diagrams.net" agent="Mozilla/5.0 (Windows NT 10.0; Win64; x64; rv:130.0) Gecko/20100101 Firefox/130.0" version="24.7.13">
  <diagram name="Page-1" id="CvhjbtxJpAnkuYpp8DQP">
    <mxGraphModel dx="1766" dy="1551" grid="1" gridSize="10" guides="1" tooltips="1" connect="1" arrows="1" fold="1" page="1" pageScale="1" pageWidth="827" pageHeight="583" math="0" shadow="0">
      <root>
        <mxCell id="0" />
        <mxCell id="1" parent="0" />
        <mxCell id="L792V39x15litVdkWeOh-18" value="BezierCurve" style="whiteSpace=wrap;strokeWidth=2;verticalAlign=middle;" parent="1" vertex="1">
          <mxGeometry x="-490" y="-500" width="130" height="50" as="geometry" />
        </mxCell>
        <mxCell id="L792V39x15litVdkWeOh-23" value="AbstractPointControlledCurve&#xa;" style="strokeWidth=2;textShadow=0;fontStyle=0" parent="1" vertex="1">
          <mxGeometry x="-250" y="-400" width="180" height="60" as="geometry" />
        </mxCell>
        <mxCell id="wIcexeNxMYov8hJtN3G0-4" value="RationalBezierCurve" style="whiteSpace=wrap;strokeWidth=2;verticalAlign=middle;" vertex="1" parent="1">
          <mxGeometry x="-490" y="-430" width="130" height="50" as="geometry" />
        </mxCell>
        <mxCell id="wIcexeNxMYov8hJtN3G0-5" value="PHBezierCurve" style="whiteSpace=wrap;strokeWidth=2;verticalAlign=middle;" vertex="1" parent="1">
          <mxGeometry x="-490" y="-280" width="130" height="50" as="geometry" />
        </mxCell>
        <mxCell id="wIcexeNxMYov8hJtN3G0-6" value="AbstractBezierSpline&#xa;" style="whiteSpace=wrap;strokeWidth=2;verticalAlign=middle;" vertex="1" parent="1">
          <mxGeometry x="-490" y="-364" width="130" height="60" as="geometry" />
        </mxCell>
        <mxCell id="wIcexeNxMYov8hJtN3G0-12" value="" style="endArrow=block;endSize=16;endFill=0;html=1;rounded=0;entryX=0.006;entryY=0.174;entryDx=0;entryDy=0;exitX=1;exitY=0.5;exitDx=0;exitDy=0;entryPerimeter=0;" edge="1" parent="1" source="L792V39x15litVdkWeOh-18" target="L792V39x15litVdkWeOh-23">
          <mxGeometry width="160" relative="1" as="geometry">
            <mxPoint x="-460" y="-420" as="sourcePoint" />
            <mxPoint x="-300" y="-420" as="targetPoint" />
          </mxGeometry>
        </mxCell>
        <mxCell id="wIcexeNxMYov8hJtN3G0-13" value="" style="endArrow=block;endSize=16;endFill=0;html=1;rounded=0;entryX=0;entryY=0.5;entryDx=0;entryDy=0;exitX=1;exitY=0.5;exitDx=0;exitDy=0;" edge="1" parent="1" source="wIcexeNxMYov8hJtN3G0-4" target="L792V39x15litVdkWeOh-23">
          <mxGeometry width="160" relative="1" as="geometry">
            <mxPoint x="-350" y="-380" as="sourcePoint" />
            <mxPoint x="-240" y="-283" as="targetPoint" />
          </mxGeometry>
        </mxCell>
        <mxCell id="wIcexeNxMYov8hJtN3G0-14" value="" style="endArrow=block;endSize=16;endFill=0;html=1;rounded=0;entryX=-0.001;entryY=0.671;entryDx=0;entryDy=0;exitX=1;exitY=0.5;exitDx=0;exitDy=0;entryPerimeter=0;" edge="1" parent="1" target="L792V39x15litVdkWeOh-23">
          <mxGeometry width="160" relative="1" as="geometry">
            <mxPoint x="-360" y="-340" as="sourcePoint" />
            <mxPoint x="-250" y="-243" as="targetPoint" />
          </mxGeometry>
        </mxCell>
        <mxCell id="wIcexeNxMYov8hJtN3G0-15" value="" style="endArrow=block;endSize=16;endFill=0;html=1;rounded=0;exitX=1;exitY=0.5;exitDx=0;exitDy=0;entryX=-0.001;entryY=0.891;entryDx=0;entryDy=0;entryPerimeter=0;" edge="1" parent="1" source="wIcexeNxMYov8hJtN3G0-5" target="L792V39x15litVdkWeOh-23">
          <mxGeometry width="160" relative="1" as="geometry">
            <mxPoint x="-330" y="-310" as="sourcePoint" />
            <mxPoint x="-260" y="-330" as="targetPoint" />
          </mxGeometry>
        </mxCell>
        <mxCell id="wIcexeNxMYov8hJtN3G0-16" value="C1QuadraticBezierSpline" style="whiteSpace=wrap;strokeWidth=2;verticalAlign=middle;" vertex="1" parent="1">
          <mxGeometry x="-730" y="-460" width="160" height="50" as="geometry" />
        </mxCell>
        <mxCell id="wIcexeNxMYov8hJtN3G0-17" value="C2CubicBezierSpline" style="whiteSpace=wrap;strokeWidth=2;verticalAlign=middle;" vertex="1" parent="1">
          <mxGeometry x="-730" y="-360" width="160" height="50" as="geometry" />
        </mxCell>
        <mxCell id="wIcexeNxMYov8hJtN3G0-18" value="G1QuadraticBezierSpline" style="whiteSpace=wrap;strokeWidth=2;verticalAlign=middle;" vertex="1" parent="1">
          <mxGeometry x="-730" y="-290" width="160" height="50" as="geometry" />
        </mxCell>
        <mxCell id="wIcexeNxMYov8hJtN3G0-19" value="" style="endArrow=block;endSize=16;endFill=0;html=1;rounded=0;entryX=0;entryY=0.25;entryDx=0;entryDy=0;exitX=1;exitY=0.5;exitDx=0;exitDy=0;" edge="1" parent="1" source="wIcexeNxMYov8hJtN3G0-16" target="wIcexeNxMYov8hJtN3G0-6">
          <mxGeometry width="160" relative="1" as="geometry">
            <mxPoint x="-580" y="-474" as="sourcePoint" />
            <mxPoint x="-469" y="-380" as="targetPoint" />
          </mxGeometry>
        </mxCell>
        <mxCell id="wIcexeNxMYov8hJtN3G0-20" value="" style="endArrow=block;endSize=16;endFill=0;html=1;rounded=0;entryX=0;entryY=0.5;entryDx=0;entryDy=0;exitX=1;exitY=0.5;exitDx=0;exitDy=0;" edge="1" parent="1" source="wIcexeNxMYov8hJtN3G0-17" target="wIcexeNxMYov8hJtN3G0-6">
          <mxGeometry width="160" relative="1" as="geometry">
            <mxPoint x="-580" y="-340" as="sourcePoint" />
            <mxPoint x="-500" y="-273" as="targetPoint" />
          </mxGeometry>
        </mxCell>
        <mxCell id="wIcexeNxMYov8hJtN3G0-21" value="" style="endArrow=block;endSize=16;endFill=0;html=1;rounded=0;entryX=0.004;entryY=0.65;entryDx=0;entryDy=0;exitX=1;exitY=0.5;exitDx=0;exitDy=0;entryPerimeter=0;" edge="1" parent="1" source="wIcexeNxMYov8hJtN3G0-18" target="wIcexeNxMYov8hJtN3G0-6">
          <mxGeometry width="160" relative="1" as="geometry">
            <mxPoint x="-560" y="-260" as="sourcePoint" />
            <mxPoint x="-480" y="-250" as="targetPoint" />
          </mxGeometry>
        </mxCell>
        <mxCell id="wIcexeNxMYov8hJtN3G0-22" value="" style="ellipse;whiteSpace=wrap;html=1;fillColor=#000000;" vertex="1" parent="1">
          <mxGeometry x="-651" y="-401" width="10" height="10" as="geometry" />
        </mxCell>
        <mxCell id="wIcexeNxMYov8hJtN3G0-27" value="" style="ellipse;whiteSpace=wrap;html=1;fillColor=#000000;" vertex="1" parent="1">
          <mxGeometry x="-651" y="-389" width="10" height="10" as="geometry" />
        </mxCell>
        <mxCell id="wIcexeNxMYov8hJtN3G0-28" value="" style="ellipse;whiteSpace=wrap;html=1;fillColor=#000000;" vertex="1" parent="1">
          <mxGeometry x="-651" y="-377" width="10" height="10" as="geometry" />
        </mxCell>
        <mxCell id="wIcexeNxMYov8hJtN3G0-29" value="&lt;font style=&quot;font-size: 10px;&quot;&gt;&lt;i&gt;calculatePointAtT&lt;/i&gt;&lt;/font&gt;" style="text;html=1;align=center;verticalAlign=middle;whiteSpace=wrap;rounded=0;" vertex="1" parent="1">
          <mxGeometry x="-190" y="-374" width="60" height="30" as="geometry" />
        </mxCell>
        <mxCell id="wIcexeNxMYov8hJtN3G0-31" value="&lt;font style=&quot;font-size: 10px;&quot;&gt;&lt;i&gt;generateBezierCurves&lt;/i&gt;&lt;/font&gt;" style="text;html=1;align=center;verticalAlign=middle;whiteSpace=wrap;rounded=0;" vertex="1" parent="1">
          <mxGeometry x="-455" y="-343" width="60" height="30" as="geometry" />
        </mxCell>
        <mxCell id="wIcexeNxMYov8hJtN3G0-32" value="&lt;font style=&quot;font-size: 10px;&quot;&gt;&lt;i&gt;calculatePointAtT&lt;/i&gt;&lt;/font&gt;" style="text;html=1;align=center;verticalAlign=middle;whiteSpace=wrap;rounded=0;" vertex="1" parent="1">
          <mxGeometry x="-454" y="-535" width="60" height="30" as="geometry" />
        </mxCell>
        <mxCell id="wIcexeNxMYov8hJtN3G0-34" value="&lt;font style=&quot;font-size: 12px;&quot;&gt;Implementirajo&lt;/font&gt;" style="text;strokeColor=none;fillColor=none;html=1;fontSize=24;fontStyle=1;verticalAlign=middle;align=center;" vertex="1" parent="1">
          <mxGeometry x="-479" y="-565" width="110" height="40" as="geometry" />
        </mxCell>
        <mxCell id="wIcexeNxMYov8hJtN3G0-35" value="&lt;font style=&quot;font-size: 10px;&quot;&gt;&lt;i&gt;generateBezierCurves&lt;/i&gt;&lt;/font&gt;" style="text;html=1;align=center;verticalAlign=middle;whiteSpace=wrap;rounded=0;" vertex="1" parent="1">
          <mxGeometry x="-680" y="-497" width="60" height="30" as="geometry" />
        </mxCell>
        <mxCell id="wIcexeNxMYov8hJtN3G0-36" value="&lt;font style=&quot;font-size: 12px;&quot;&gt;Implementirajo&lt;/font&gt;" style="text;strokeColor=none;fillColor=none;html=1;fontSize=24;fontStyle=1;verticalAlign=middle;align=center;" vertex="1" parent="1">
          <mxGeometry x="-705" y="-527" width="110" height="40" as="geometry" />
        </mxCell>
      </root>
    </mxGraphModel>
  </diagram>
</mxfile>
